# File generated by ImageToStl.com - Free Image and 3D model conversion tools

o obj1
v 7.55264235 12.35786438 10.15999985
v 3.77632117 12.35786438 10.15999985
v 7.55264235 12.35786438 0
v 3.77632117 12.35786438 0
v 8.30272675 12.29639721 10.15999985
v 8.30272675 12.29639721 0
v 9.03279781 12.11363983 10.15999985
v 9.03279781 12.11363983 0
v 9.72337627 11.81446552 10.15999985
v 9.72337627 11.81446552 0
v 10.35603809 11.40685749 10.15999985
v 10.35603809 11.40685749 0
v 10.91390133 10.90169144 10.15999985
v 10.91390133 10.90169144 0
v 11.38208294 10.31244564 10.15999985
v 11.38208294 10.31244564 0
v 11.74808979 9.65484047 10.15999985
v 11.74808979 9.65484047 0
v 12.00215721 8.94642448 10.15999985
v 12.00215721 8.94642448 0
v 12.13750744 8.2060976 10.15999985
v 12.13750744 8.2060976 0
v 12.13750744 4.25976896 10.15999985
v 12.13750744 4.25976896 0
v 16.39727783 0 10.15999985
v 16.39727783 0 0
v 29.2846756 0 10.15999985
v 29.2846756 0 0
v 30.08772278 0.0682883 0
v 30.08772278 0.0682883 10.15999985
v 30.8677063 0.27119368 0
v 30.8677063 0.27119368 10.15999985
v 31.60223389 0.60288978 0
v 31.60223389 0.60288978 10.15999985
v 32.27019882 1.05384731 0
v 32.27019882 1.05384731 10.15999985
v 32.85243225 1.61112094 0
v 32.85243225 1.61112094 10.15999985
v 33.33221054 2.25870323 0
v 33.33221054 2.25870323 10.15999985
v 33.69575119 2.97799897 0
v 33.69575119 2.97799897 10.15999985
v 33.93261337 3.74835181 0
v 33.93261337 3.74835181 10.15999985
v 34.0359993 4.54763889 0
v 34.0359993 4.54763889 10.15999985
v 34.0359993 8.2060976 10.15999985
v 34.0359993 8.2060976 0
v 33.87346649 8.95297909 0
v 33.87346649 8.95297909 10.15999985
v 33.59430695 9.66454124 0
v 33.59430695 9.66454124 10.15999985
v 33.205616 10.32269955 0
v 33.205616 10.32269955 10.15999985
v 32.71727753 10.91072559 0
v 32.71727753 10.91072559 10.15999985
v 32.14169312 11.41367435 0
v 32.14169312 11.41367435 10.15999985
v 31.49350357 11.81876469 0
v 31.49350357 11.81876469 10.15999985
v 30.78917313 12.11570168 0
v 30.78917313 12.11570168 10.15999985
v 30.04660606 12.29693508 0
v 30.04660606 12.29693508 10.15999985
v 29.2846756 12.35786438 0
v 29.2846756 12.35786438 10.15999985
v 21.71086502 12.35786438 10.15999985
v 21.71086502 12.35786438 0
v 21.71086502 21.67813492 10.15999985
v 21.71086502 21.67813492 0
v 21.63294411 22.7083149 0
v 21.63294411 22.7083149 10.15999985
v 21.40095139 23.71505165 0
v 21.40095139 23.71505165 10.15999985
v 21.0201664 24.67543983 0
v 21.0201664 24.67543983 10.15999985
v 20.49925423 25.56762505 0
v 20.49925423 25.56762505 10.15999985
v 19.85006905 26.37130356 0
v 19.85006905 26.37130356 10.15999985
v 19.08738327 27.06819153 0
v 19.08738327 27.06819153 10.15999985
v 18.22854996 27.64242744 0
v 18.22854996 27.64242744 10.15999985
v 17.2931118 28.08094597 0
v 17.2931118 28.08094597 10.15999985
v 17.2931118 30.07679367 10.15999985
v 17.2931118 30.07679367 0
v 17.27726555 30.41452599 0
v 17.27726555 30.41452599 10.15999985
v 17.20815086 30.74549103 0
v 17.20815086 30.74549103 10.15999985
v 17.08751106 31.06134033 0
v 17.08751106 31.06134033 10.15999985
v 16.91839027 31.3541069 0
v 16.91839027 31.3541069 10.15999985
v 16.70505333 31.61640549 0
v 16.70505333 31.61640549 10.15999985
v 16.45287895 31.84162331 0
v 16.45287895 31.84162331 10.15999985
v 16.16823006 32.02407837 0
v 16.16823006 32.02407837 10.15999985
v 15.85828495 32.15916443 0
v 15.85828495 32.15916443 10.15999985
v 15.53086376 32.2434845 0
v 15.53086376 32.2434845 10.15999985
v 15.19422245 32.27489853 0
v 15.19422245 32.27489853 10.15999985
v 14.85685253 32.25262451 0
v 14.85685253 32.25262451 10.15999985
v 0 30.07679367 10.15999985
v 0 30.07679367 0
v 0.23762906 28.45423317 10.15999985
v 0.23762906 28.45423317 0
v 11.31667137 30.07679367 10.15999985
v 11.31667137 30.07679367 0
v 11.47123528 30.08697891 10.15999985
v 11.47123528 30.08697891 0
v 11.62545967 30.07253075 10.15999985
v 11.62545967 30.07253075 0
v 11.77544117 30.03380966 10.15999985
v 11.77544117 30.03380966 0
v 11.91738796 29.97179794 10.15999985
v 11.91738796 29.97179794 0
v 12.0477066 29.88806725 10.15999985
v 12.0477066 29.88806725 0
v 12.16309929 29.78473091 10.15999985
v 12.16309929 29.78473091 0
v 12.26064873 29.66440582 10.15999985
v 12.26064873 29.66440582 0
v 12.33788586 29.53013611 10.15999985
v 12.33788586 29.53013611 0
v 12.39285755 29.38531876 10.15999985
v 12.39285755 29.38531876 0
v 12.42417145 29.23361778 10.15999985
v 12.42417145 29.23361778 0
v 12.431036 29.07886887 10.15999985
v 12.431036 29.07886887 0
v 12.431036 28.08094597 10.15999985
v 12.431036 28.08094597 0
v 11.49559879 27.64242744 0
v 11.49559879 27.64242744 10.15999985
v 10.63676548 27.06819153 0
v 10.63676548 27.06819153 10.15999985
v 9.87407875 26.37130356 0
v 9.87407875 26.37130356 10.15999985
v 9.22489357 25.56762505 0
v 9.22489357 25.56762505 10.15999985
v 8.70398235 24.67543983 0
v 8.70398235 24.67543983 10.15999985
v 8.32319736 23.71505165 0
v 8.32319736 23.71505165 10.15999985
v 8.09120464 22.7083149 0
v 8.09120464 22.7083149 10.15999985
v 8.01328278 21.67813492 0
v 8.01328278 21.67813492 10.15999985
v 8.01328278 17.36013412 10.15999985
v 8.01328278 17.36013412 0
v 10.53885269 21.67813492 10.15999985
v 10.53885269 21.67813492 0
v 10.60096359 22.40788078 10.15999985
v 10.60096359 22.40788078 0
v 10.78550816 23.11663246 10.15999985
v 10.78550816 23.11663246 0
v 11.08717728 23.7840023 10.15999985
v 11.08717728 23.7840023 0
v 11.49729443 24.39078903 10.15999985
v 11.49729443 24.39078903 0
v 12.00405884 24.9195385 10.15999985
v 12.00405884 24.9195385 0
v 12.5928936 25.35503769 10.15999985
v 12.5928936 25.35503769 0
v 13.2468586 25.68475914 10.15999985
v 13.2468586 25.68475914 0
v 13.94713974 25.89921761 10.15999985
v 13.94713974 25.89921761 0
v 14.67359161 25.99224281 10.15999985
v 14.67359161 25.99224281 0
v 15.40531635 25.96116066 10.15999985
v 15.40531635 25.96116066 0
v 16.1212616 25.80686378 10.15999985
v 16.1212616 25.80686378 0
v 16.80083275 25.53378868 10.15999985
v 16.80083275 25.53378868 0
v 17.42447853 25.14979362 10.15999985
v 17.42447853 25.14979362 0
v 17.97425842 24.66592598 10.15999985
v 17.97425842 24.66592598 0
v 18.43435669 24.09610558 10.15999985
v 18.43435669 24.09610558 0
v 18.79153824 23.45672417 10.15999985
v 18.79153824 23.45672417 0
v 19.03552437 22.76617622 10.15999985
v 19.03552437 22.76617622 0
v 19.15929604 22.04432678 10.15999985
v 19.15929604 22.04432678 0
v 19.17485428 21.67813492 10.15999985
v 19.17485428 21.67813492 0
v 19.15929604 21.31194305 10.15999985
v 19.15929604 21.31194305 0
v 19.03552437 20.59009361 10.15999985
v 19.03552437 20.59009361 0
v 18.79153824 19.89954567 10.15999985
v 18.79153824 19.89954567 0
v 18.43435669 19.26016426 10.15999985
v 18.43435669 19.26016426 0
v 17.97425842 18.69034195 10.15999985
v 17.97425842 18.69034195 0
v 17.42447853 18.20647621 10.15999985
v 17.42447853 18.20647621 0
v 16.80083275 17.82247925 10.15999985
v 16.80083275 17.82247925 0
v 16.1212616 17.54940605 10.15999985
v 16.1212616 17.54940605 0
v 15.40531635 17.39510918 10.15999985
v 15.40531635 17.39510918 0
v 14.67359161 17.36402512 10.15999985
v 14.67359161 17.36402512 0
v 13.94713974 17.45705032 10.15999985
v 13.94713974 17.45705032 0
v 13.2468586 17.6715107 10.15999985
v 13.2468586 17.6715107 0
v 12.5928936 18.00123215 10.15999985
v 12.5928936 18.00123215 0
v 12.00405884 18.43673134 10.15999985
v 12.00405884 18.43673134 0
v 11.49729443 18.9654808 10.15999985
v 11.49729443 18.9654808 0
v 11.08717728 19.57226753 10.15999985
v 11.08717728 19.57226753 0
v 10.78550816 20.23963737 10.15999985
v 10.78550816 20.23963737 0
v 10.60096359 20.94838905 10.15999985
v 10.60096359 20.94838905 0
v 0 30.07679367 10.15999985
v 0 30.07679367 0
vn -0 -1 -0
vn -0.08167 -0.99666 -0
vn -0.24283 -0.97007 -0
vn -0.39752 -0.91759 -0
vn -0.5416 -0.84064 -0
vn -0.67123 -0.74125 -0
vn -0.78295 -0.62209 -0
vn -0.87378 -0.48632 -0
vn -0.94129 -0.33759 -0
vn -0.9837 -0.17984 -0
vn -1 0 0
vn -0.70711 -0.70711 -0
vn 0.08473 -0.9964 0
vn 0.25176 -0.96779 0
vn 0.41156 -0.91138 0
vn 0.55954 -0.8288 0
vn 0.69145 -0.72242 0
vn 0.80351 -0.5953 0
vn 0.89249 -0.45107 0
vn 0.95584 -0.2939 0
vn 0.99174 -0.12828 0
vn 1 0 0
vn 0.97713 0.21264 0
vn 0.93092 0.36522 0
vn 0.86105 0.50851 0
vn 0.7693 0.63889 0
vn 0.658 0.75302 0
vn 0.52997 0.84802 0
vn 0.38848 0.92146 0
vn 0.2371 0.97148 0
vn 0.07971 0.99682 0
vn -0 1 0
vn 0.99715 0.07542 0
vn 0.97446 0.22455 0
vn 0.9296 0.36858 0
vn 0.86358 0.50421 0
vn 0.77791 0.62837 0
vn 0.67454 0.73823 0
vn 0.55583 0.8313 0
vn 0.42446 0.90545 0
vn 0.9989 0.04687 0
vn 0.97888 0.20441 0
vn 0.93418 0.35681 0
vn 0.86591 0.5002 0
vn 0.7758 0.63098 0
vn 0.66612 0.74585 0
vn 0.53964 0.8419 0
vn 0.39955 0.91671 0
vn 0.24938 0.96841 0
vn 0.09292 0.99567 0
vn -0.06588 0.99783 0
vn -0.14491 0.98945 0
vn -0.98945 -0.14491 -0
vn 0.14491 -0.98945 0
vn 0.06576 -0.99784 0
vn -0.09328 -0.99564 -0
vn -0.24997 -0.96825 -0
vn -0.40033 -0.91637 -0
vn -0.54056 -0.84131 -0
vn -0.66712 -0.74495 -0
vn -0.77679 -0.62976 -0
vn -0.86682 -0.49863 -0
vn -0.93491 -0.35488 -0
vn -0.97935 -0.20216 -0
vn -0.99902 -0.04432 -0
vn -0.42446 0.90545 0
vn -0.55583 0.8313 0
vn -0.67454 0.73823 0
vn -0.77791 0.62837 0
vn -0.86358 0.50421 0
vn -0.9296 0.36858 0
vn -0.97446 0.22455 0
vn -0.99715 0.07542 0
vn 0.9964 -0.08481 0
vn 0.96773 -0.25198 0
vn 0.91123 -0.4119 0
vn 0.82851 -0.55998 0
vn 0.72196 -0.69194 0
vn 0.59463 -0.804 0
vn 0.4502 -0.89293 0
vn 0.29282 -0.95617 0
vn 0.12702 -0.9919 0
vn -0.04244 -0.9991 -0
vn -0.21068 -0.97756 -0
vn -0.37286 -0.92789 -0
vn -0.52431 -0.85153 -0
vn -0.66067 -0.75067 -0
vn -0.77804 -0.62822 -0
vn -0.87301 -0.4877 -0
vn -0.94288 -0.33314 -0
vn -0.98562 -0.169 -0
vn -0.9991 -0.04244 -0
vn -0.9991 0.04244 0
vn -0.98562 0.169 0
vn -0.94288 0.33314 0
vn -0.87301 0.4877 0
vn -0.77804 0.62822 0
vn -0.66067 0.75067 0
vn -0.52431 0.85153 0
vn -0.37286 0.92789 0
vn -0.21068 0.97756 0
vn -0.04244 0.9991 0
vn 0.12702 0.9919 0
vn 0.29282 0.95617 0
vn 0.4502 0.89293 0
vn 0.59463 0.804 0
vn 0.72196 0.69194 0
vn 0.82851 0.55998 0
vn 0.91123 0.4119 0
vn 0.96773 0.25198 0
vn 0.9964 0.08481 0
vn -0.76306 0.64632 0
vn 0 -0 1
vn 0 0 -1
f 1//1 2//1 3//1
f 3//1 2//1 4//1
f 1//2 3//2 5//2
f 5//2 3//2 6//2
f 5//3 6//3 7//3
f 7//3 6//3 8//3
f 7//4 8//4 9//4
f 9//4 8//4 10//4
f 9//5 10//5 11//5
f 11//5 10//5 12//5
f 11//6 12//6 13//6
f 13//6 12//6 14//6
f 13//7 14//7 15//7
f 15//7 14//7 16//7
f 15//8 16//8 17//8
f 17//8 16//8 18//8
f 17//9 18//9 19//9
f 19//9 18//9 20//9
f 19//10 20//10 21//10
f 21//10 20//10 22//10
f 23//11 21//11 24//11
f 24//11 21//11 22//11
f 25//12 23//12 26//12
f 26//12 23//12 24//12
f 27//1 25//1 28//1
f 28//1 25//1 26//1
f 27//13 28//13 29//13
f 27//13 29//13 30//13
f 30//14 29//14 31//14
f 30//14 31//14 32//14
f 32//15 31//15 33//15
f 32//15 33//15 34//15
f 34//16 33//16 35//16
f 34//16 35//16 36//16
f 36//17 35//17 37//17
f 36//17 37//17 38//17
f 38//18 37//18 39//18
f 38//18 39//18 40//18
f 40//19 39//19 41//19
f 40//19 41//19 42//19
f 42//20 41//20 43//20
f 42//20 43//20 44//20
f 44//21 43//21 45//21
f 44//21 45//21 46//21
f 47//22 46//22 48//22
f 48//22 46//22 45//22
f 47//23 48//23 49//23
f 47//23 49//23 50//23
f 50//24 49//24 51//24
f 50//24 51//24 52//24
f 52//25 51//25 53//25
f 52//25 53//25 54//25
f 54//26 53//26 55//26
f 54//26 55//26 56//26
f 56//27 55//27 57//27
f 56//27 57//27 58//27
f 58//28 57//28 59//28
f 58//28 59//28 60//28
f 60//29 59//29 61//29
f 60//29 61//29 62//29
f 62//30 61//30 63//30
f 62//30 63//30 64//30
f 64//31 63//31 65//31
f 64//31 65//31 66//31
f 67//32 66//32 68//32
f 68//32 66//32 65//32
f 69//22 67//22 70//22
f 70//22 67//22 68//22
f 69//33 70//33 71//33
f 69//33 71//33 72//33
f 72//34 71//34 73//34
f 72//34 73//34 74//34
f 74//35 73//35 75//35
f 74//35 75//35 76//35
f 76//36 75//36 77//36
f 76//36 77//36 78//36
f 78//37 77//37 79//37
f 78//37 79//37 80//37
f 80//38 79//38 81//38
f 80//38 81//38 82//38
f 82//39 81//39 83//39
f 82//39 83//39 84//39
f 84//40 83//40 85//40
f 84//40 85//40 86//40
f 87//22 86//22 88//22
f 88//22 86//22 85//22
f 87//41 88//41 89//41
f 87//41 89//41 90//41
f 90//42 89//42 91//42
f 90//42 91//42 92//42
f 92//43 91//43 93//43
f 92//43 93//43 94//43
f 94//44 93//44 95//44
f 94//44 95//44 96//44
f 96//45 95//45 97//45
f 96//45 97//45 98//45
f 98//46 97//46 99//46
f 98//46 99//46 100//46
f 100//47 99//47 101//47
f 100//47 101//47 102//47
f 102//48 101//48 103//48
f 102//48 103//48 104//48
f 104//49 103//49 105//49
f 104//49 105//49 106//49
f 106//50 105//50 107//50
f 106//50 107//50 108//50
f 108//51 107//51 109//51
f 108//51 109//51 110//51
f 111//52 110//52 112//52
f 112//52 110//52 109//52
f 113//53 111//53 114//53
f 114//53 111//53 112//53
f 115//54 113//54 116//54
f 116//54 113//54 114//54
f 115//55 116//55 117//55
f 117//55 116//55 118//55
f 117//56 118//56 119//56
f 119//56 118//56 120//56
f 119//57 120//57 121//57
f 121//57 120//57 122//57
f 121//58 122//58 123//58
f 123//58 122//58 124//58
f 123//59 124//59 125//59
f 125//59 124//59 126//59
f 125//60 126//60 127//60
f 127//60 126//60 128//60
f 127//61 128//61 129//61
f 129//61 128//61 130//61
f 129//62 130//62 131//62
f 131//62 130//62 132//62
f 131//63 132//63 133//63
f 133//63 132//63 134//63
f 133//64 134//64 135//64
f 135//64 134//64 136//64
f 135//65 136//65 137//65
f 137//65 136//65 138//65
f 139//11 137//11 140//11
f 140//11 137//11 138//11
f 139//66 140//66 141//66
f 139//66 141//66 142//66
f 142//67 141//67 143//67
f 142//67 143//67 144//67
f 144//68 143//68 145//68
f 144//68 145//68 146//68
f 146//69 145//69 147//69
f 146//69 147//69 148//69
f 148//70 147//70 149//70
f 148//70 149//70 150//70
f 150//71 149//71 151//71
f 150//71 151//71 152//71
f 152//72 151//72 153//72
f 152//72 153//72 154//72
f 154//73 153//73 155//73
f 154//73 155//73 156//73
f 157//11 156//11 158//11
f 158//11 156//11 155//11
f 159//74 160//74 161//74
f 161//74 160//74 162//74
f 161//75 162//75 163//75
f 163//75 162//75 164//75
f 163//76 164//76 165//76
f 165//76 164//76 166//76
f 165//77 166//77 167//77
f 167//77 166//77 168//77
f 167//78 168//78 169//78
f 169//78 168//78 170//78
f 169//79 170//79 171//79
f 171//79 170//79 172//79
f 171//80 172//80 173//80
f 173//80 172//80 174//80
f 173//81 174//81 175//81
f 175//81 174//81 176//81
f 175//82 176//82 177//82
f 177//82 176//82 178//82
f 177//83 178//83 179//83
f 179//83 178//83 180//83
f 179//84 180//84 181//84
f 181//84 180//84 182//84
f 181//85 182//85 183//85
f 183//85 182//85 184//85
f 183//86 184//86 185//86
f 185//86 184//86 186//86
f 185//87 186//87 187//87
f 187//87 186//87 188//87
f 187//88 188//88 189//88
f 189//88 188//88 190//88
f 189//89 190//89 191//89
f 191//89 190//89 192//89
f 191//90 192//90 193//90
f 193//90 192//90 194//90
f 193//91 194//91 195//91
f 195//91 194//91 196//91
f 195//92 196//92 197//92
f 197//92 196//92 198//92
f 197//93 198//93 199//93
f 199//93 198//93 200//93
f 199//94 200//94 201//94
f 201//94 200//94 202//94
f 201//95 202//95 203//95
f 203//95 202//95 204//95
f 203//96 204//96 205//96
f 205//96 204//96 206//96
f 205//97 206//97 207//97
f 207//97 206//97 208//97
f 207//98 208//98 209//98
f 209//98 208//98 210//98
f 209//99 210//99 211//99
f 211//99 210//99 212//99
f 211//100 212//100 213//100
f 213//100 212//100 214//100
f 213//101 214//101 215//101
f 215//101 214//101 216//101
f 215//102 216//102 217//102
f 217//102 216//102 218//102
f 217//103 218//103 219//103
f 219//103 218//103 220//103
f 219//104 220//104 221//104
f 221//104 220//104 222//104
f 221//105 222//105 223//105
f 223//105 222//105 224//105
f 223//106 224//106 225//106
f 225//106 224//106 226//106
f 225//107 226//107 227//107
f 227//107 226//107 228//107
f 227//108 228//108 229//108
f 229//108 228//108 230//108
f 229//109 230//109 231//109
f 231//109 230//109 232//109
f 231//110 232//110 233//110
f 233//110 232//110 234//110
f 233//111 234//111 159//111
f 159//111 234//111 160//111
f 2//112 157//112 4//112
f 4//112 157//112 158//112
f 44//113 46//113 27//113
f 25//113 27//113 67//113
f 19//113 21//113 67//113
f 67//113 21//113 23//113
f 67//113 23//113 25//113
f 44//113 27//113 42//113
f 32//113 34//113 40//113
f 40//113 34//113 36//113
f 40//113 36//113 38//113
f 56//113 27//113 54//113
f 54//113 27//113 52//113
f 62//113 64//113 27//113
f 27//113 64//113 66//113
f 27//113 66//113 67//113
f 42//113 27//113 40//113
f 40//113 27//113 30//113
f 40//113 30//113 32//113
f 46//113 47//113 27//113
f 27//113 47//113 50//113
f 27//113 50//113 52//113
f 56//113 58//113 27//113
f 27//113 58//113 60//113
f 27//113 60//113 62//113
f 117//113 119//113 110//113
f 110//113 119//113 121//113
f 110//113 121//113 123//113
f 137//113 139//113 181//113
f 5//113 157//113 1//113
f 1//113 157//113 2//113
f 235//113 113//113 110//113
f 110//113 113//113 115//113
f 110//113 115//113 117//113
f 98//113 131//113 96//113
f 96//113 131//113 133//113
f 96//113 133//113 94//113
f 197//113 69//113 195//113
f 195//113 69//113 72//113
f 195//113 72//113 193//113
f 193//113 72//113 74//113
f 193//113 74//113 191//113
f 191//113 74//113 76//113
f 191//113 76//113 189//113
f 189//113 76//113 78//113
f 189//113 78//113 187//113
f 187//113 78//113 80//113
f 187//113 80//113 185//113
f 185//113 80//113 82//113
f 185//113 82//113 183//113
f 183//113 82//113 84//113
f 183//113 84//113 181//113
f 181//113 84//113 86//113
f 181//113 86//113 137//113
f 137//113 86//113 87//113
f 137//113 87//113 135//113
f 135//113 87//113 90//113
f 135//113 90//113 133//113
f 133//113 90//113 92//113
f 133//113 92//113 94//113
f 215//113 67//113 213//113
f 213//113 67//113 211//113
f 197//113 199//113 69//113
f 69//113 199//113 201//113
f 69//113 201//113 67//113
f 67//113 201//113 203//113
f 67//113 203//113 205//113
f 205//113 207//113 67//113
f 67//113 207//113 209//113
f 67//113 209//113 211//113
f 227//113 157//113 225//113
f 225//113 157//113 223//113
f 175//113 177//113 139//113
f 139//113 177//113 179//113
f 139//113 179//113 181//113
f 5//113 7//113 157//113
f 157//113 7//113 9//113
f 157//113 9//113 67//113
f 67//113 9//113 11//113
f 67//113 11//113 13//113
f 215//113 217//113 67//113
f 67//113 217//113 219//113
f 67//113 219//113 157//113
f 157//113 219//113 221//113
f 157//113 221//113 223//113
f 227//113 229//113 157//113
f 157//113 229//113 231//113
f 157//113 231//113 156//113
f 13//113 15//113 67//113
f 67//113 15//113 17//113
f 67//113 17//113 19//113
f 123//113 125//113 110//113
f 110//113 125//113 127//113
f 110//113 127//113 108//113
f 108//113 127//113 129//113
f 108//113 129//113 106//113
f 98//113 100//113 131//113
f 131//113 100//113 102//113
f 131//113 102//113 129//113
f 129//113 102//113 104//113
f 129//113 104//113 106//113
f 231//113 233//113 156//113
f 156//113 233//113 159//113
f 156//113 159//113 154//113
f 154//113 159//113 161//113
f 154//113 161//113 152//113
f 152//113 161//113 163//113
f 152//113 163//113 150//113
f 150//113 163//113 165//113
f 150//113 165//113 148//113
f 148//113 165//113 167//113
f 148//113 167//113 146//113
f 146//113 167//113 169//113
f 146//113 169//113 144//113
f 144//113 169//113 142//113
f 142//113 169//113 171//113
f 142//113 171//113 139//113
f 139//113 171//113 173//113
f 139//113 173//113 175//113
f 3//114 4//114 158//114
f 26//114 24//114 28//114
f 28//114 24//114 68//114
f 28//114 68//114 65//114
f 155//114 153//114 162//114
f 65//114 63//114 28//114
f 28//114 63//114 61//114
f 28//114 61//114 59//114
f 53//114 51//114 28//114
f 28//114 51//114 49//114
f 37//114 35//114 39//114
f 39//114 35//114 33//114
f 39//114 33//114 31//114
f 88//114 85//114 140//114
f 186//114 85//114 188//114
f 188//114 85//114 190//114
f 186//114 184//114 85//114
f 85//114 184//114 182//114
f 85//114 182//114 140//114
f 140//114 182//114 180//114
f 140//114 180//114 178//114
f 59//114 57//114 28//114
f 28//114 57//114 55//114
f 28//114 55//114 53//114
f 49//114 48//114 28//114
f 28//114 48//114 45//114
f 28//114 45//114 43//114
f 43//114 41//114 28//114
f 28//114 41//114 39//114
f 28//114 39//114 29//114
f 29//114 39//114 31//114
f 162//114 153//114 164//114
f 164//114 153//114 151//114
f 164//114 151//114 166//114
f 166//114 151//114 149//114
f 166//114 149//114 168//114
f 126//114 124//114 109//114
f 109//114 124//114 122//114
f 109//114 122//114 120//114
f 68//114 216//114 214//114
f 140//114 138//114 88//114
f 88//114 138//114 136//114
f 88//114 136//114 89//114
f 89//114 136//114 134//114
f 95//114 93//114 134//114
f 134//114 93//114 91//114
f 134//114 91//114 89//114
f 95//114 134//114 97//114
f 97//114 134//114 132//114
f 97//114 132//114 99//114
f 230//114 228//114 158//114
f 158//114 228//114 226//114
f 158//114 226//114 224//114
f 214//114 212//114 68//114
f 68//114 212//114 210//114
f 68//114 210//114 208//114
f 208//114 206//114 68//114
f 68//114 206//114 204//114
f 68//114 204//114 70//114
f 70//114 204//114 202//114
f 178//114 176//114 140//114
f 140//114 176//114 174//114
f 140//114 174//114 141//114
f 141//114 174//114 172//114
f 141//114 172//114 143//114
f 143//114 172//114 170//114
f 143//114 170//114 145//114
f 145//114 170//114 168//114
f 145//114 168//114 147//114
f 147//114 168//114 149//114
f 114//114 236//114 116//114
f 116//114 236//114 109//114
f 116//114 109//114 118//114
f 118//114 109//114 120//114
f 24//114 22//114 68//114
f 68//114 22//114 20//114
f 68//114 20//114 18//114
f 68//114 12//114 158//114
f 158//114 12//114 10//114
f 10//114 8//114 158//114
f 158//114 8//114 6//114
f 158//114 6//114 3//114
f 162//114 160//114 155//114
f 155//114 160//114 234//114
f 155//114 234//114 158//114
f 158//114 234//114 232//114
f 158//114 232//114 230//114
f 224//114 222//114 158//114
f 158//114 222//114 220//114
f 158//114 220//114 68//114
f 68//114 220//114 218//114
f 68//114 218//114 216//114
f 107//114 130//114 109//114
f 109//114 130//114 128//114
f 109//114 128//114 126//114
f 107//114 105//114 130//114
f 130//114 105//114 103//114
f 130//114 103//114 132//114
f 132//114 103//114 101//114
f 132//114 101//114 99//114
f 18//114 16//114 68//114
f 68//114 16//114 14//114
f 68//114 14//114 12//114
f 83//114 194//114 85//114
f 85//114 194//114 192//114
f 85//114 192//114 190//114
f 83//114 81//114 194//114
f 194//114 81//114 79//114
f 194//114 79//114 77//114
f 77//114 75//114 194//114
f 194//114 75//114 73//114
f 194//114 73//114 196//114
f 196//114 73//114 71//114
f 196//114 71//114 198//114
f 198//114 71//114 70//114
f 198//114 70//114 200//114
f 200//114 70//114 202//114
# Vertices: 236, normals: 114, texture coordinates: 0, faces: 468

